<mxfile host="Electron" modified="2023-05-18T20:23:12.696Z" agent="Mozilla/5.0 (Windows NT 10.0; Win64; x64) AppleWebKit/537.36 (KHTML, like Gecko) draw.io/21.2.8 Chrome/112.0.5615.165 Electron/24.2.0 Safari/537.36" etag="foNoVh-GrOhL26wJ95_f" version="21.2.8" type="device">
  <diagram id="p1WFtV5cTaJLbCV86L4F" name="Page-1">
    <mxGraphModel dx="1276" dy="614" grid="1" gridSize="10" guides="1" tooltips="1" connect="1" arrows="1" fold="1" page="1" pageScale="1" pageWidth="1169" pageHeight="827" math="0" shadow="0">
      <root>
        <mxCell id="0" />
        <mxCell id="1" parent="0" />
        <mxCell id="Lrtluq5l5MD6FJIpUNIz-151" value=":user.php" style="shape=umlLifeline;perimeter=lifelinePerimeter;whiteSpace=wrap;html=1;container=0;collapsible=0;recursiveResize=0;outlineConnect=0;" parent="1" vertex="1">
          <mxGeometry x="880" y="140" width="156.72" height="500" as="geometry" />
        </mxCell>
        <mxCell id="Lrtluq5l5MD6FJIpUNIz-152" value="Click Upgrade" style="html=1;verticalAlign=bottom;endArrow=block;rounded=0;elbow=vertical;" parent="1" edge="1">
          <mxGeometry x="-0.0556" y="3" width="80" relative="1" as="geometry">
            <mxPoint x="202.09" y="240" as="sourcePoint" />
            <mxPoint x="382.09" y="240" as="targetPoint" />
            <mxPoint as="offset" />
          </mxGeometry>
        </mxCell>
        <mxCell id="Lrtluq5l5MD6FJIpUNIz-153" value="" style="shape=umlLifeline;participant=umlActor;perimeter=lifelinePerimeter;whiteSpace=wrap;html=1;container=0;collapsible=0;recursiveResize=0;verticalAlign=top;spacingTop=36;outlineConnect=0;fontFamily=Helvetica;fontSize=12;fontColor=default;align=center;strokeColor=default;fillColor=default;size=50;" parent="1" vertex="1">
          <mxGeometry x="145" y="175.14" width="46.09" height="464.86" as="geometry" />
        </mxCell>
        <mxCell id="Lrtluq5l5MD6FJIpUNIz-154" value="Organization" style="text;html=1;align=center;verticalAlign=middle;resizable=1;points=[];autosize=1;strokeColor=none;fillColor=none;container=0;movable=1;rotatable=1;deletable=1;editable=1;connectable=1;locked=0;" parent="1" vertex="1">
          <mxGeometry x="130" y="140" width="90" height="30" as="geometry" />
        </mxCell>
        <mxCell id="Lrtluq5l5MD6FJIpUNIz-155" value=":upgradeplans.php" style="shape=umlLifeline;perimeter=lifelinePerimeter;whiteSpace=wrap;html=1;container=0;collapsible=0;recursiveResize=0;outlineConnect=0;" parent="1" vertex="1">
          <mxGeometry x="289.9" y="140" width="199.75" height="500" as="geometry" />
        </mxCell>
        <mxCell id="Lrtluq5l5MD6FJIpUNIz-158" value="" style="html=1;points=[];perimeter=orthogonalPerimeter;container=0;" parent="1" vertex="1">
          <mxGeometry x="382.09" y="240" width="15.37" height="30" as="geometry" />
        </mxCell>
        <mxCell id="Lrtluq5l5MD6FJIpUNIz-160" value="&lt;font style=&quot;font-size: 11px;&quot;&gt;:payment.php&lt;/font&gt;" style="shape=umlLifeline;perimeter=lifelinePerimeter;whiteSpace=wrap;html=1;container=0;collapsible=0;recursiveResize=0;outlineConnect=0;" parent="1" vertex="1">
          <mxGeometry x="570" y="140" width="190" height="490" as="geometry" />
        </mxCell>
        <mxCell id="Lrtluq5l5MD6FJIpUNIz-161" value="&lt;span style=&quot;font-size: 14px;&quot;&gt;&lt;b&gt;&lt;u&gt;Upgrade Subscription Plan&amp;nbsp;&lt;/u&gt;&lt;/b&gt;&lt;/span&gt;" style="text;html=1;align=center;verticalAlign=middle;resizable=0;points=[];autosize=1;strokeColor=none;fillColor=none;" parent="1" vertex="1">
          <mxGeometry x="445.56000000000006" y="90" width="210" height="30" as="geometry" />
        </mxCell>
        <mxCell id="Lrtluq5l5MD6FJIpUNIz-163" value="" style="html=1;points=[];perimeter=orthogonalPerimeter;container=0;" parent="1" vertex="1">
          <mxGeometry x="657.32" y="270" width="15.37" height="30" as="geometry" />
        </mxCell>
        <mxCell id="Lrtluq5l5MD6FJIpUNIz-169" value="" style="html=1;points=[];perimeter=orthogonalPerimeter;container=0;" parent="1" vertex="1">
          <mxGeometry x="657.32" y="330" width="15.37" height="30" as="geometry" />
        </mxCell>
        <mxCell id="Lrtluq5l5MD6FJIpUNIz-172" value="" style="html=1;points=[];perimeter=orthogonalPerimeter;container=0;" parent="1" vertex="1">
          <mxGeometry x="950.68" y="360" width="15.37" height="50" as="geometry" />
        </mxCell>
        <mxCell id="-NEVhXVCDdOZwvtnlFNx-1" value="redirect to payment" style="html=1;verticalAlign=bottom;endArrow=block;rounded=0;elbow=vertical;entryX=-0.086;entryY=0.04;entryDx=0;entryDy=0;entryPerimeter=0;" edge="1" parent="1" target="Lrtluq5l5MD6FJIpUNIz-163">
          <mxGeometry x="-0.0557" y="3" width="80" relative="1" as="geometry">
            <mxPoint x="400" y="271" as="sourcePoint" />
            <mxPoint x="635" y="290" as="targetPoint" />
            <mxPoint as="offset" />
          </mxGeometry>
        </mxCell>
        <mxCell id="-NEVhXVCDdOZwvtnlFNx-5" value="display payment form" style="html=1;verticalAlign=bottom;endArrow=open;dashed=1;endSize=8;rounded=0;elbow=vertical;exitX=-0.346;exitY=1.02;exitDx=0;exitDy=0;exitPerimeter=0;" edge="1" parent="1" source="Lrtluq5l5MD6FJIpUNIz-163">
          <mxGeometry x="0.0578" y="-5" relative="1" as="geometry">
            <mxPoint x="657.3199999999999" y="353.83" as="sourcePoint" />
            <mxPoint x="168" y="300" as="targetPoint" />
            <mxPoint as="offset" />
            <Array as="points" />
          </mxGeometry>
        </mxCell>
        <mxCell id="-NEVhXVCDdOZwvtnlFNx-19" value="click pay" style="html=1;verticalAlign=bottom;endArrow=block;rounded=0;elbow=vertical;" edge="1" parent="1" target="Lrtluq5l5MD6FJIpUNIz-169">
          <mxGeometry x="-0.0556" y="3" width="80" relative="1" as="geometry">
            <mxPoint x="170" y="330" as="sourcePoint" />
            <mxPoint x="350" y="330" as="targetPoint" />
            <mxPoint as="offset" />
          </mxGeometry>
        </mxCell>
        <mxCell id="-NEVhXVCDdOZwvtnlFNx-20" value="&lt;font style=&quot;font-size: 10px;&quot;&gt;createTransaction($userid, $pricePlan,&lt;br&gt;$_POST[&#39;amounttopay&#39;])&lt;br&gt;&amp;nbsp;&lt;/font&gt;" style="html=1;verticalAlign=bottom;endArrow=block;rounded=0;elbow=vertical;" edge="1" parent="1">
          <mxGeometry x="-0.0283" width="80" relative="1" as="geometry">
            <mxPoint x="670" y="360" as="sourcePoint" />
            <mxPoint x="947.56" y="360" as="targetPoint" />
            <mxPoint as="offset" />
          </mxGeometry>
        </mxCell>
        <mxCell id="-NEVhXVCDdOZwvtnlFNx-23" value="" style="html=1;points=[];perimeter=orthogonalPerimeter;container=0;" vertex="1" parent="1">
          <mxGeometry x="657.32" y="410" width="15.37" height="40" as="geometry" />
        </mxCell>
        <mxCell id="-NEVhXVCDdOZwvtnlFNx-25" value="getLatestTransactionInfo ($userid)" style="text;whiteSpace=wrap;html=1;" vertex="1" parent="1">
          <mxGeometry x="700" y="360" width="220" height="40" as="geometry" />
        </mxCell>
        <mxCell id="-NEVhXVCDdOZwvtnlFNx-26" value="return $info" style="html=1;verticalAlign=bottom;endArrow=open;dashed=1;endSize=8;rounded=0;elbow=vertical;entryX=0.799;entryY=-0.02;entryDx=0;entryDy=0;entryPerimeter=0;" edge="1" parent="1" target="-NEVhXVCDdOZwvtnlFNx-23">
          <mxGeometry x="0.0164" y="27" relative="1" as="geometry">
            <mxPoint x="950" y="410" as="sourcePoint" />
            <mxPoint x="850.6800000000001" y="413" as="targetPoint" />
            <mxPoint as="offset" />
            <Array as="points" />
          </mxGeometry>
        </mxCell>
        <mxCell id="-NEVhXVCDdOZwvtnlFNx-27" value="upgradePlans ($pricePlan, $userid, $userinfo[&#39;startDate&#39;],&lt;br&gt;&amp;nbsp;$userinfo[&#39;expiryDate&#39;])" style="html=1;verticalAlign=bottom;endArrow=block;rounded=0;elbow=vertical;" edge="1" parent="1">
          <mxGeometry y="-40" width="80" relative="1" as="geometry">
            <mxPoint x="671.2199999999999" y="450" as="sourcePoint" />
            <mxPoint x="948.7799999999999" y="450" as="targetPoint" />
            <mxPoint as="offset" />
          </mxGeometry>
        </mxCell>
        <mxCell id="-NEVhXVCDdOZwvtnlFNx-28" value="" style="html=1;points=[];perimeter=orthogonalPerimeter;container=0;" vertex="1" parent="1">
          <mxGeometry x="950.68" y="450" width="15.37" height="60" as="geometry" />
        </mxCell>
        <mxCell id="-NEVhXVCDdOZwvtnlFNx-29" value="" style="html=1;points=[];perimeter=orthogonalPerimeter;container=0;" vertex="1" parent="1">
          <mxGeometry x="657.32" y="510" width="15.37" height="40" as="geometry" />
        </mxCell>
        <mxCell id="-NEVhXVCDdOZwvtnlFNx-30" value="success" style="html=1;verticalAlign=bottom;endArrow=open;dashed=1;endSize=8;rounded=0;elbow=vertical;entryX=0.799;entryY=-0.02;entryDx=0;entryDy=0;entryPerimeter=0;" edge="1" parent="1">
          <mxGeometry x="0.0164" y="27" relative="1" as="geometry">
            <mxPoint x="952.69" y="510" as="sourcePoint" />
            <mxPoint x="672.69" y="509" as="targetPoint" />
            <mxPoint as="offset" />
            <Array as="points" />
          </mxGeometry>
        </mxCell>
        <mxCell id="-NEVhXVCDdOZwvtnlFNx-31" value="redirect to summary.php &quot;payment success&quot;" style="html=1;verticalAlign=bottom;endArrow=open;dashed=1;endSize=8;rounded=0;elbow=vertical;" edge="1" parent="1" target="Lrtluq5l5MD6FJIpUNIz-153">
          <mxGeometry x="0.0164" y="27" relative="1" as="geometry">
            <mxPoint x="657.3199999999999" y="551" as="sourcePoint" />
            <mxPoint x="377.32" y="550" as="targetPoint" />
            <mxPoint as="offset" />
            <Array as="points" />
          </mxGeometry>
        </mxCell>
      </root>
    </mxGraphModel>
  </diagram>
</mxfile>
